<svg width="20" height="20" viewBox="0 0 20 20" fill="none" xmlns="http://www.w3.org/2000/svg">
<g clip-path="url(#clip0)">
<path d="M18.6742 19.3426L17.1542 4.86709C17.1223 4.56405 16.8668 4.33395 16.5621 4.33395H13.7051V3.68255C13.7051 1.65207 12.053 0 10.0225 0C7.9919 0 6.33983 1.65207 6.33983 3.68255V4.33395H3.48278C3.17806 4.33395 2.92263 4.56405 2.89074 4.86709L1.37066 19.3426C1.35312 19.5103 1.40759 19.6777 1.52035 19.8031C1.63327 19.9284 1.79409 20 1.9627 20H18.0821C18.2508 20 18.4116 19.9284 18.5244 19.8031C18.6375 19.6777 18.6918 19.5103 18.6742 19.3426ZM7.53032 3.68255C7.53032 2.3085 8.64833 1.19049 10.0225 1.19049C11.3966 1.19049 12.5146 2.3085 12.5146 3.68255V4.33395H7.53032V3.68255ZM2.62371 18.8095L4.01882 5.52443H6.33983V6.83623C6.33983 7.1649 6.6064 7.43147 6.93507 7.43147C7.26375 7.43147 7.53032 7.1649 7.53032 6.83623V5.52443H12.5146V6.83623C12.5146 7.1649 12.7812 7.43147 13.1098 7.43147C13.4385 7.43147 13.7051 7.1649 13.7051 6.83623V5.52443H16.0261L17.4212 18.8095H2.62371Z" fill="#120F0F"/>
</g>
<defs>
<clipPath id="clip0">
<rect width="20" height="20" fill="white"/>
</clipPath>
</defs>
</svg>
