<svg width="34" height="23" viewBox="0 0 34 23" fill="none" xmlns="http://www.w3.org/2000/svg">
<circle cx="6" cy="17" r="6" fill="#120F0F"/>
<path d="M3.38 20C3.38 19.7 3.40333 19.43 3.45 19.19C3.49667 18.9433 3.57667 18.7167 3.69 18.51C3.81 18.3033 3.97 18.11 4.17 17.93C4.37667 17.75 4.63667 17.5733 4.95 17.4C5.22333 17.2533 5.46333 17.1267 5.67 17.02C5.88333 16.9067 6.06 16.8033 6.2 16.71C6.34 16.6167 6.44667 16.5233 6.52 16.43C6.59333 16.33 6.63 16.2167 6.63 16.09C6.63 15.89 6.55 15.72 6.39 15.58C6.23 15.4333 6 15.36 5.7 15.36C5.54 15.36 5.39333 15.3833 5.26 15.43C5.12667 15.47 5 15.5267 4.88 15.6C4.76667 15.6733 4.66 15.7567 4.56 15.85C4.46667 15.9367 4.38 16.03 4.3 16.13L3.44 15.14C3.52667 15.0467 3.65 14.9467 3.81 14.84C3.97 14.7267 4.15667 14.6233 4.37 14.53C4.59 14.43 4.83 14.35 5.09 14.29C5.35667 14.2233 5.64 14.19 5.94 14.19C6.28 14.19 6.58333 14.2333 6.85 14.32C7.11667 14.4 7.34 14.5167 7.52 14.67C7.70667 14.8167 7.84667 14.9967 7.94 15.21C8.04 15.4167 8.09 15.6433 8.09 15.89C8.09 16.1233 8.04667 16.33 7.96 16.51C7.87333 16.69 7.76333 16.85 7.63 16.99C7.49667 17.13 7.35 17.2533 7.19 17.36C7.03667 17.46 6.88667 17.55 6.74 17.63C6.62 17.6967 6.48333 17.7733 6.33 17.86C6.17667 17.9467 6.02333 18.0433 5.87 18.15C5.72333 18.25 5.58667 18.3567 5.46 18.47C5.33333 18.5767 5.23667 18.6833 5.17 18.79H8.2V20H3.38Z" fill="white"/>
</svg>
