<svg width="38" height="38" viewBox="0 0 38 38" fill="none" xmlns="http://www.w3.org/2000/svg">
<g clip-path="url(#clip0)">
<path d="M10.2019 17.5961C10.2837 17.5828 10.3665 17.5767 10.4494 17.5778H24.559L24.2513 17.4347C23.9506 17.2923 23.677 17.0986 23.4428 16.8623L19.4861 12.9056C18.965 12.4081 18.8775 11.6079 19.2786 11.0095C19.7455 10.3719 20.6409 10.2334 21.2786 10.7003C21.3301 10.7381 21.3791 10.7792 21.4251 10.8235L28.5801 17.9784C29.1392 18.537 29.1397 19.443 28.5812 20.0022C28.5808 20.0025 28.5804 20.0029 28.5801 20.0033L21.4251 27.1582C20.8655 27.7163 19.9595 27.715 19.4014 27.1554C19.3575 27.1114 19.3165 27.0645 19.2786 27.0151C18.8775 26.4168 18.965 25.6165 19.4861 25.1191L23.4357 21.1552C23.6456 20.9451 23.887 20.7688 24.1512 20.6329L24.5804 20.4397H10.5281C9.79712 20.4669 9.15577 19.9562 9.01844 19.2377C8.89193 18.4576 9.42175 17.7227 10.2019 17.5961Z" fill="#120F0F"/>
</g>
<circle cx="19" cy="19" r="18" stroke="black" stroke-width="2"/>
<defs>
<clipPath id="clip0">
<rect width="20" height="20" fill="white" transform="matrix(-1 0 0 1 29 9)"/>
</clipPath>
</defs>
</svg>
