<svg width="38" height="38" viewBox="0 0 38 38" fill="none" xmlns="http://www.w3.org/2000/svg">
<g clip-path="url(#clip0)">
<path d="M27.7981 17.5961C27.7162 17.5828 27.6334 17.5767 27.5506 17.5778H13.441L13.7486 17.4347C14.0494 17.2923 14.3229 17.0986 14.5571 16.8623L18.5138 12.9056C19.0349 12.4081 19.1225 11.6079 18.7213 11.0095C18.2544 10.3719 17.359 10.2334 16.7213 10.7003C16.6698 10.7381 16.6208 10.7792 16.5748 10.8235L9.41988 17.9784C8.86072 18.537 8.86023 19.443 9.41876 20.0022C9.41912 20.0025 9.41952 20.0029 9.41988 20.0033L16.5748 27.1582C17.1344 27.7163 18.0405 27.715 18.5986 27.1554C18.6425 27.1114 18.6835 27.0645 18.7213 27.0151C19.1225 26.4168 19.0349 25.6165 18.5138 25.1191L14.5643 21.1552C14.3543 20.9451 14.1129 20.7688 13.8488 20.6329L13.4195 20.4397H27.4718C28.2028 20.4669 28.8442 19.9562 28.9815 19.2377C29.108 18.4576 28.5782 17.7227 27.7981 17.5961Z" fill="#120F0F"/>
</g>
<circle r="18" transform="matrix(-1 0 0 1 19 19)" stroke="black" stroke-width="2"/>
<defs>
<clipPath id="clip0">
<rect width="20" height="20" fill="white" transform="translate(9 9)"/>
</clipPath>
</defs>
</svg>
