<svg width="25" height="25" viewBox="0 0 25 25" fill="none" xmlns="http://www.w3.org/2000/svg">
<path d="M15.9999 7.0025L14.4438 7C12.6955 7 11.5658 8.15914 11.5658 9.95322V11.3148H10.0012C9.86595 11.3148 9.75647 11.4245 9.75647 11.5597V13.5325C9.75647 13.6677 9.86608 13.7772 10.0012 13.7772H11.5658V18.7553C11.5658 18.8905 11.6752 19 11.8104 19H13.8518C13.987 19 14.0965 18.8904 14.0965 18.7553V13.7772H15.9259C16.0611 13.7772 16.1706 13.6677 16.1706 13.5325L16.1713 11.5597C16.1713 11.4947 16.1455 11.4326 16.0997 11.3866C16.0538 11.3407 15.9914 11.3148 15.9265 11.3148H14.0965V10.1606C14.0965 9.60579 14.2287 9.32415 14.9514 9.32415L15.9997 9.32377C16.1347 9.32377 16.2442 9.21416 16.2442 9.07909V7.24718C16.2442 7.11223 16.1349 7.00275 15.9999 7.0025Z" fill="#949494"/>
<circle cx="12.5" cy="12.5" r="12" stroke="#B9B9B9"/>
</svg>
