<svg width="25" height="25" viewBox="0 0 25 25" fill="none" xmlns="http://www.w3.org/2000/svg">
<path d="M12.1708 12.2376C12.4821 12.0811 12.7174 11.9067 12.8787 11.7183C13.1656 11.3789 13.3071 10.9288 13.3071 10.371C13.3071 9.82819 13.1656 9.36411 12.8824 8.97503C12.4099 8.34126 11.6102 8.01688 10.4795 8H6V17.1437H10.1767C10.6473 17.1437 11.0833 17.1034 11.4864 17.0209C11.8896 16.9375 12.2383 16.7847 12.5337 16.5615C12.7962 16.3675 13.0155 16.1265 13.1899 15.8425C13.4656 15.4131 13.6034 14.9265 13.6034 14.3846C13.6034 13.8596 13.4824 13.4124 13.2424 13.0449C12.9996 12.6773 12.6433 12.4083 12.1708 12.2376ZM7.84787 9.58818H9.86544C10.3089 9.58818 10.6745 9.63599 10.9614 9.73068C11.2933 9.8685 11.4592 10.1488 11.4592 10.5763C11.4592 10.9598 11.3327 11.2279 11.0824 11.3789C10.8302 11.5298 10.503 11.6057 10.1017 11.6057H7.84787V9.58818ZM11.0383 15.3962C10.8152 15.504 10.5011 15.5574 10.0989 15.5574H7.84787V13.1189H10.1298C10.5273 13.1217 10.8367 13.1742 11.058 13.2727C11.4517 13.4508 11.6477 13.7771 11.6477 14.2543C11.6477 14.8168 11.4452 15.1956 11.0383 15.3962Z" fill="#949494"/>
<path d="M19.5585 8.4267H15.5862V9.56486H19.5585V8.4267Z" fill="#949494"/>
<path d="M20.9381 12.9182C20.8556 12.3885 20.6737 11.9225 20.3906 11.5203C20.0803 11.0647 19.6865 10.7309 19.2074 10.52C18.7302 10.3081 18.193 10.2021 17.5949 10.2031C16.5908 10.2031 15.7751 10.5171 15.1442 11.1406C14.5151 11.7659 14.2001 12.665 14.2001 13.8369C14.2001 15.0867 14.5479 15.9895 15.2473 16.5436C15.9439 17.0986 16.7483 17.3752 17.6614 17.3752C18.7668 17.3752 19.6265 17.0461 20.2406 16.3898C20.6334 15.9755 20.8556 15.5676 20.9044 15.1673H19.0743C18.9684 15.3651 18.8455 15.5198 18.7049 15.6323C18.4499 15.8386 18.118 15.9417 17.7111 15.9417C17.3239 15.9417 16.9958 15.8564 16.722 15.6867C16.2701 15.4148 16.0339 14.9385 16.0039 14.2607H20.9981C21.0056 13.6766 20.9869 13.2275 20.9381 12.9182ZM16.0489 13.0935C16.1145 12.6538 16.2739 12.305 16.527 12.0472C16.7802 11.7903 17.1383 11.6609 17.5968 11.66C18.0196 11.66 18.373 11.7809 18.6608 12.0238C18.9449 12.2685 19.1052 12.6238 19.1381 13.0935H16.0489Z" fill="#949494"/>
<circle cx="12.5" cy="12.5" r="12" stroke="#B9B9B9"/>
</svg>
