<svg width="25" height="25" viewBox="0 0 25 25" fill="none" xmlns="http://www.w3.org/2000/svg">
<path d="M15.25 7H10.75C8.67925 7 7 8.67925 7 10.75V15.25C7 17.3208 8.67925 19 10.75 19H15.25C17.3208 19 19 17.3208 19 15.25V10.75C19 8.67925 17.3208 7 15.25 7ZM17.875 15.25C17.875 16.6975 16.6975 17.875 15.25 17.875H10.75C9.3025 17.875 8.125 16.6975 8.125 15.25V10.75C8.125 9.3025 9.3025 8.125 10.75 8.125H15.25C16.6975 8.125 17.875 9.3025 17.875 10.75V15.25Z" fill="#949494"/>
<path d="M13 10C11.3432 10 10 11.3432 10 13C10 14.6568 11.3432 16 13 16C14.6568 16 16 14.6568 16 13C16 11.3432 14.6568 10 13 10ZM13 14.875C11.9665 14.875 11.125 14.0335 11.125 13C11.125 11.9657 11.9665 11.125 13 11.125C14.0335 11.125 14.875 11.9657 14.875 13C14.875 14.0335 14.0335 14.875 13 14.875Z" fill="#949494"/>
<path d="M16.2249 10.1746C16.4457 10.1746 16.6247 9.99565 16.6247 9.77487C16.6247 9.5541 16.4457 9.37512 16.2249 9.37512C16.0042 9.37512 15.8252 9.5541 15.8252 9.77487C15.8252 9.99565 16.0042 10.1746 16.2249 10.1746Z" fill="#949494"/>
<circle cx="12.5" cy="12.5" r="12" stroke="#B9B9B9"/>
</svg>
