<svg width="30" height="30" viewBox="0 0 30 30" fill="none" xmlns="http://www.w3.org/2000/svg">
<path d="M17.8711 14.8496C17.8711 16.4194 16.5857 17.6919 15 17.6919C13.4143 17.6919 12.1289 16.4194 12.1289 14.8496C12.1289 13.2798 13.4143 12.0073 15 12.0073C16.5857 12.0073 17.8711 13.2798 17.8711 14.8496Z" fill="#120F0F"/>
<path d="M21.7144 9.82144C21.5764 9.4512 21.3562 9.11607 21.0701 8.84099C20.7922 8.55776 20.454 8.33978 20.0797 8.20315C19.7762 8.08645 19.3203 7.94755 18.4805 7.90971C17.5721 7.8687 17.2997 7.85986 14.9999 7.85986C12.6999 7.85986 12.4275 7.86847 11.5193 7.90949C10.6796 7.94755 10.2234 8.08645 9.92013 8.20315C9.54591 8.33978 9.2074 8.55776 8.92976 8.84099C8.64366 9.11607 8.42348 9.45097 8.28523 9.82144C8.16736 10.1219 8.02705 10.5735 7.98883 11.4048C7.9474 12.3039 7.93848 12.5736 7.93848 14.8506C7.93848 17.1273 7.9474 17.397 7.98883 18.2963C8.02705 19.1277 8.16736 19.579 8.28523 19.8795C8.42348 20.25 8.64343 20.5849 8.92953 20.8599C9.2074 21.1432 9.54568 21.3611 9.9199 21.4978C10.2234 21.6147 10.6796 21.7536 11.5193 21.7914C12.4275 21.8325 12.6997 21.8411 14.9997 21.8411C17.3 21.8411 17.5723 21.8325 18.4803 21.7914C19.3201 21.7536 19.7762 21.6147 20.0797 21.4978C20.8309 21.2109 21.4246 20.6231 21.7144 19.8795C21.8323 19.579 21.9726 19.1277 22.011 18.2963C22.0525 17.397 22.0612 17.1273 22.0612 14.8506C22.0612 12.5736 22.0525 12.3039 22.011 11.4048C21.9728 10.5735 21.8325 10.1219 21.7144 9.82144ZM14.9999 19.2289C12.5571 19.2289 10.5768 17.2687 10.5768 14.8504C10.5768 12.432 12.5571 10.4718 14.9999 10.4718C17.4426 10.4718 19.4228 12.432 19.4228 14.8504C19.4228 17.2687 17.4426 19.2289 14.9999 19.2289ZM19.5977 11.3219C19.0269 11.3219 18.5641 10.8637 18.5641 10.2986C18.5641 9.73352 19.0269 9.27536 19.5977 9.27536C20.1685 9.27536 20.6313 9.73352 20.6313 10.2986C20.6311 10.8637 20.1685 11.3219 19.5977 11.3219Z" fill="#120F0F"/>
<path d="M15 0C6.717 0 0 6.64976 0 14.8499C0 23.0499 6.717 29.6997 15 29.6997C23.283 29.6997 30 23.0499 30 14.8499C30 6.64976 23.283 0 15 0ZM23.5613 18.3654C23.5197 19.2731 23.3739 19.8929 23.161 20.4353C22.7135 21.5807 21.7989 22.4862 20.6419 22.9292C20.0942 23.1399 19.468 23.284 18.5513 23.3255C17.6328 23.3669 17.3394 23.3769 15.0002 23.3769C12.6608 23.3769 12.3676 23.3669 11.4489 23.3255C10.5322 23.284 9.90601 23.1399 9.35829 22.9292C8.78334 22.715 8.26286 22.3795 7.83257 21.9455C7.39449 21.5198 7.05551 21.0043 6.83922 20.4353C6.62636 19.8931 6.48056 19.2731 6.4389 18.3656C6.39656 17.4561 6.38672 17.1656 6.38672 14.8499C6.38672 12.5341 6.39656 12.2436 6.43867 11.3343C6.48033 10.4266 6.6259 9.80685 6.83876 9.26439C7.05505 8.69542 7.39426 8.17993 7.83257 7.75416C8.26263 7.32024 8.78334 6.98466 9.35806 6.77053C9.90601 6.5598 10.532 6.41569 11.4489 6.37423C12.3674 6.33276 12.6608 6.32279 15 6.32279C17.3392 6.32279 17.6326 6.33276 18.5511 6.37445C19.468 6.41569 20.094 6.5598 20.6419 6.77031C21.2167 6.98443 21.7374 7.32024 22.1677 7.75416C22.6057 8.18015 22.9449 8.69542 23.161 9.26439C23.3741 9.80685 23.5197 10.4266 23.5616 11.3343C23.6034 12.2436 23.6133 12.5341 23.6133 14.8499C23.6133 17.1656 23.6034 17.4561 23.5613 18.3654Z" fill="#120F0F"/>
</svg>
