<svg width="30" height="30" viewBox="0 0 30 30" fill="none" xmlns="http://www.w3.org/2000/svg">
<path d="M14.1545 12.1938L9.29395 17.2883L13.7173 14.8856L16.0286 17.2883L20.8619 12.1938L16.4875 14.5544L14.1545 12.1938Z" fill="#120F0F"/>
<path d="M15 0C6.717 0 0 6.64976 0 14.8499C0 23.0499 6.717 29.6997 15 29.6997C23.283 29.6997 30 23.0499 30 14.8499C30 6.64976 23.283 0 15 0ZM15.1172 22.7989C14.1886 22.7989 13.2923 22.669 12.4491 22.4286L9.42421 24.131V20.9284C7.39815 19.4021 6.10428 17.0775 6.10428 14.4739C6.10428 9.87596 10.1395 6.14877 15.1172 6.14877C20.0951 6.14877 24.1301 9.87596 24.1301 14.4739C24.1301 19.0715 20.0951 22.7989 15.1172 22.7989Z" fill="#120F0F"/>
</svg>
