<svg width="23" height="23" viewBox="0 0 23 23" fill="none" xmlns="http://www.w3.org/2000/svg">
<path d="M7.31741 15.5292C8.23594 16.8375 9.15298 18.0077 9.76075 18.7614C9.84922 18.871 9.93212 18.9728 10.0124 19.0708H8.17835C7.97304 19.0708 7.80664 19.2389 7.80664 19.4463C7.80664 19.6537 7.97304 19.8218 8.17835 19.8218H14.1258C14.3311 19.8218 14.4975 19.6537 14.4975 19.4463C14.4975 19.2389 14.3311 19.0708 14.1258 19.0708H12.2918C12.3721 18.9728 12.455 18.871 12.5438 18.7614C13.1512 18.0103 14.0679 16.8375 14.9868 15.5292C15.8984 14.2571 16.7191 12.921 17.4423 11.5309C18.2014 10.025 18.5865 8.77487 18.5865 7.81501C18.589 5.82053 17.8056 3.90708 16.4093 2.49707C16.3161 2.39937 16.1779 2.36011 16.0479 2.3944C15.9179 2.42868 15.8163 2.53113 15.7822 2.6624C15.7481 2.79368 15.7868 2.93332 15.8833 3.02767C17.1402 4.29703 17.8453 6.01954 17.8431 7.81497C17.8431 8.65543 17.4855 9.79101 16.78 11.1899C16.073 12.5477 15.271 13.8529 14.3801 15.0954C13.4739 16.3869 12.568 17.5439 11.9677 18.2875C11.7681 18.5346 11.5885 18.7531 11.4354 18.9379C11.3639 19.0204 11.2606 19.0676 11.1521 19.0676C11.0436 19.0676 10.9404 19.0203 10.8689 18.9379C10.7157 18.7531 10.5362 18.5346 10.3366 18.2875C9.73626 17.5443 8.83037 16.3872 7.92413 15.0954C7.03326 13.8529 6.23126 12.5477 5.52431 11.1899C4.81805 9.79101 4.4612 8.65543 4.4612 7.81497C4.46098 5.09489 6.07117 2.63846 8.55014 1.577C10.2158 0.871374 12.0923 0.871374 13.7579 1.577C13.8803 1.62936 14.0209 1.61189 14.127 1.53105C14.2331 1.45025 14.2884 1.31841 14.2721 1.18519C14.2559 1.05198 14.1706 0.93765 14.0482 0.885281C10.2629 -0.727693 5.89989 1.06404 4.30211 4.8877C3.91464 5.81389 3.71591 6.80948 3.71779 7.81497C3.71779 8.77482 4.10291 10.025 4.86196 11.5327C5.58516 12.9222 6.40581 14.2578 7.31741 15.5292Z" fill="#1B1736"/>
<path d="M11.1512 4.42438C11.3565 4.42438 11.5229 4.25627 11.5229 4.04886C11.5229 3.84145 11.3565 3.67334 11.1512 3.67334C9.37787 3.6733 7.8514 4.93887 7.5054 6.69602C7.15939 8.45316 8.09025 10.2125 9.72862 10.8981C11.367 11.5838 13.2566 11.0047 14.2419 9.51507C15.2272 8.02545 15.0336 6.04012 13.7797 4.77327C13.6863 4.67566 13.5481 4.63649 13.4182 4.67086C13.2882 4.70523 13.1867 4.80777 13.1527 4.93905C13.1187 5.07037 13.1574 5.20996 13.2541 5.30427C14.2573 6.31772 14.4121 7.90592 13.624 9.09765C12.8358 10.2894 11.3241 10.7527 10.0134 10.2043C8.70272 9.65585 7.958 8.24839 8.2347 6.84265C8.5114 5.43691 9.73254 4.42442 11.1512 4.42438Z" fill="#1B1736"/>
<path d="M22.1632 20.7868L19.8771 16.6559C19.6704 16.2889 19.2837 16.0633 18.8657 16.0659H16.2164C16.0111 16.0659 15.8447 16.2341 15.8447 16.4415C15.8447 16.6489 16.0111 16.817 16.2164 16.817H18.8657C19.0145 16.8141 19.1533 16.8925 19.2289 17.022L21.5142 21.1529C21.5764 21.2604 21.5751 21.3937 21.5108 21.4999C21.4349 21.6266 21.2976 21.7025 21.151 21.6989H1.15248C1.00603 21.7025 0.868897 21.6265 0.793013 21.4999C0.728717 21.3937 0.727454 21.2604 0.789659 21.1529L3.075 17.022C3.1504 16.8925 3.2891 16.8141 3.43778 16.817H6.08703C6.29233 16.817 6.45873 16.6489 6.45873 16.4415C6.45873 16.2341 6.29233 16.0659 6.08703 16.0659H3.43782C3.01963 16.0632 2.63255 16.2888 2.42564 16.6559L0.139903 20.7868C-0.0506763 21.1269 -0.0462767 21.5441 0.151447 21.88C0.359756 22.2377 0.741742 22.4552 1.15248 22.4501H21.151C21.5616 22.4551 21.9435 22.2376 22.1517 21.88C22.3494 21.544 22.3538 21.1269 22.1632 20.7868Z" fill="#1B1736"/>
<path d="M18.2141 17.9438H16.7272C16.6538 17.944 16.5821 17.9659 16.5209 18.007L15.4057 18.758C15.2349 18.8732 15.1888 19.1064 15.3028 19.2789C15.4167 19.4515 15.6475 19.498 15.8183 19.3829L16.8387 18.695H18.2141C18.4194 18.695 18.5858 18.5268 18.5858 18.3195C18.5858 18.112 18.4194 17.9438 18.2141 17.9438Z" fill="#1B1736"/>
<path d="M15.9844 20.5723C15.9844 20.7797 16.1508 20.9478 16.3561 20.9478H19.3299C19.5352 20.9478 19.7016 20.7797 19.7016 20.5723C19.7016 20.3649 19.5352 20.1968 19.3299 20.1968H16.3561C16.1508 20.1968 15.9844 20.3649 15.9844 20.5723Z" fill="#1B1736"/>
<path d="M6.69249 19.446C6.85636 19.4462 7.00103 19.338 7.04864 19.1795C7.09625 19.0211 7.03553 18.8499 6.89918 18.758L5.78402 18.007C5.72277 17.9659 5.65086 17.9439 5.57732 17.9438H4.09046C3.88515 17.9438 3.71875 18.112 3.71875 18.3194C3.71875 18.5268 3.8852 18.6949 4.09046 18.6949H5.46581L6.48731 19.3829C6.54808 19.4239 6.61948 19.4458 6.69249 19.446Z" fill="#1B1736"/>
<path d="M2.97327 20.1968C2.76797 20.1968 2.60156 20.3649 2.60156 20.5723C2.60156 20.7797 2.76797 20.9478 2.97327 20.9478H5.94705C6.15235 20.9478 6.31875 20.7797 6.31875 20.5723C6.31875 20.3649 6.15235 20.1968 5.94705 20.1968H2.97327Z" fill="#1B1736"/>
</svg>
