<svg width="28" height="28" viewBox="0 0 28 28" fill="none" xmlns="http://www.w3.org/2000/svg">
<path d="M14.1302 13.6629C14.4667 13.4919 14.7211 13.3014 14.8954 13.0956C15.2055 12.725 15.3586 12.2335 15.3586 11.6242C15.3586 11.0314 15.2055 10.5245 14.8994 10.0996C14.3886 9.40738 13.5241 9.0531 12.3017 9.03467H7.45898V19.0212H11.9743C12.4831 19.0212 12.9544 18.9772 13.3903 18.887C13.8261 18.7959 14.2031 18.629 14.5224 18.3853C14.8062 18.1734 15.0434 17.9102 15.2319 17.6C15.5299 17.131 15.6789 16.5996 15.6789 16.0077C15.6789 15.4343 15.5481 14.9459 15.2886 14.5445C15.0261 14.1431 14.641 13.8492 14.1302 13.6629ZM9.45669 10.7692H11.6378C12.1172 10.7692 12.5125 10.8214 12.8227 10.9249C13.1815 11.0754 13.3609 11.3815 13.3609 11.8485C13.3609 12.2673 13.224 12.5601 12.9534 12.725C12.6808 12.8898 12.3271 12.9728 11.8933 12.9728H9.45669V10.7692ZM12.9058 17.1126C12.6646 17.2303 12.325 17.2887 11.8902 17.2887H9.45669V14.6254H11.9237C12.3534 14.6285 12.6879 14.6858 12.9271 14.7933C13.3528 14.9879 13.5646 15.3442 13.5646 15.8654C13.5646 16.4798 13.3457 16.8934 12.9058 17.1126Z" fill="#E84937"/>
<path d="M22.1167 9.50098H17.8223V10.744H22.1167V9.50098Z" fill="#E84937"/>
<path d="M23.6086 14.4068C23.5194 13.8282 23.3228 13.3193 23.0167 12.8801C22.6812 12.3824 22.2555 12.0179 21.7376 11.7875C21.2217 11.5561 20.6409 11.4404 19.9943 11.4414C18.9088 11.4414 18.027 11.7844 17.3449 12.4654C16.6648 13.1483 16.3242 14.1303 16.3242 15.4102C16.3242 16.7751 16.7002 17.7612 17.4564 18.3663C18.2094 18.9725 19.079 19.2746 20.0662 19.2746C21.2612 19.2746 22.1906 18.9152 22.8545 18.1984C23.2792 17.7458 23.5194 17.3004 23.5721 16.8632H21.5937C21.4791 17.0792 21.3463 17.2482 21.1943 17.3711C20.9186 17.5963 20.5598 17.709 20.12 17.709C19.7014 17.709 19.3466 17.6158 19.0507 17.4305C18.5621 17.1335 18.3067 16.6133 18.2743 15.873H23.6735C23.6816 15.2351 23.6613 14.7447 23.6086 14.4068ZM18.3229 14.5982C18.3939 14.118 18.5662 13.7371 18.8398 13.4555C19.1135 13.1749 19.5007 13.0336 19.9963 13.0326C20.4534 13.0326 20.8355 13.1647 21.1467 13.4299C21.4538 13.6972 21.6271 14.0852 21.6626 14.5982H18.3229Z" fill="#E84937"/>
<path d="M27.4997 13.9495C27.4997 21.218 21.6685 27.1016 14.4862 27.1016C7.3038 27.1016 1.47266 21.218 1.47266 13.9495C1.47266 6.68094 7.3038 0.797363 14.4862 0.797363C21.6685 0.797363 27.4997 6.68094 27.4997 13.9495Z" stroke="#E84937"/>
</svg>
