<svg width="22" height="18" viewBox="0 0 22 18" fill="none" xmlns="http://www.w3.org/2000/svg">
<path d="M20.8367 0.881836H1.09667C0.491015 0.881836 0 1.37784 0 1.98975V16.7619C0 17.3738 0.490973 17.8698 1.09667 17.8698H20.8367C21.4423 17.8698 21.9333 17.3738 21.9333 16.7619V1.98975C21.9333 1.37789 21.4424 0.881836 20.8367 0.881836ZM21.2022 16.762C21.2022 16.9659 21.0386 17.1313 20.8367 17.1313H1.09667C0.894769 17.1313 0.731125 16.9659 0.731125 16.762V1.98975C0.731125 1.78578 0.894769 1.62046 1.09667 1.62046H20.8367C21.0386 1.62046 21.2022 1.78578 21.2022 1.98975V16.762Z" fill="#1B1736"/>
<path d="M20.1381 2.35982C20.0415 2.3513 19.9455 2.3819 19.8712 2.44491L11.4378 9.60199C11.1658 9.83297 10.7688 9.83297 10.4969 9.60199L2.06354 2.44487C1.96351 2.36004 1.82625 2.33555 1.70352 2.38064C1.58079 2.42574 1.49117 2.53359 1.46846 2.66355C1.44576 2.79351 1.4934 2.92581 1.59342 3.01064L10.0268 10.1674C10.5703 10.6297 11.3644 10.6297 11.908 10.1674L20.3413 3.01068C20.4156 2.94771 20.462 2.85752 20.4704 2.75993C20.4789 2.66234 20.4486 2.56535 20.3862 2.49035C20.3239 2.41526 20.2347 2.36835 20.1381 2.35982Z" fill="#1B1736"/>
<path d="M7.03135 10.1178C6.90194 10.0886 6.76708 10.1325 6.67883 10.2324L1.56104 15.772C1.46842 15.8678 1.43441 16.0068 1.47219 16.1352C1.50998 16.2636 1.6136 16.3613 1.74298 16.3904C1.87239 16.4196 2.00725 16.3757 2.09549 16.2757L7.21329 10.7362C7.3059 10.6403 7.33992 10.5013 7.30213 10.373C7.26435 10.2446 7.16077 10.1469 7.03135 10.1178Z" fill="#1B1736"/>
<path d="M15.2537 10.2324C15.1655 10.1325 15.0306 10.0886 14.9012 10.1178C14.7718 10.1469 14.6682 10.2446 14.6304 10.373C14.5926 10.5014 14.6266 10.6403 14.7192 10.7362L19.837 16.2757C19.9758 16.4193 20.2027 16.4247 20.348 16.2878C20.4932 16.1508 20.5037 15.9218 20.3715 15.772L15.2537 10.2324Z" fill="#1B1736"/>
</svg>
