<svg width="28" height="28" viewBox="0 0 28 28" fill="none" xmlns="http://www.w3.org/2000/svg">
<g clip-path="url(#clip0)">
<path d="M17.298 7.94511L15.6157 7.94238C13.7257 7.94238 12.5043 9.20836 12.5043 11.1678V12.6549H10.8129C10.6667 12.6549 10.5483 12.7746 10.5483 12.9223V15.077C10.5483 15.2246 10.6668 15.3442 10.8129 15.3442H12.5043V20.7812C12.5043 20.9288 12.6227 21.0484 12.7688 21.0484H14.9757C15.1219 21.0484 15.2403 20.9287 15.2403 20.7812V15.3442H17.218C17.3641 15.3442 17.4825 15.2246 17.4825 15.077L17.4833 12.9223C17.4833 12.8514 17.4554 12.7835 17.4058 12.7333C17.3563 12.6831 17.2888 12.6549 17.2186 12.6549H15.2403V11.3943C15.2403 10.7883 15.3832 10.4807 16.1645 10.4807L17.2977 10.4803C17.4438 10.4803 17.5621 10.3606 17.5621 10.2131V8.21235C17.5621 8.06496 17.4439 7.94538 17.298 7.94511Z" fill="#E84937"/>
</g>
<path d="M26.527 13.9495C26.527 21.218 20.6959 27.1016 13.5135 27.1016C6.33115 27.1016 0.5 21.218 0.5 13.9495C0.5 6.68094 6.33115 0.797363 13.5135 0.797363C20.6959 0.797363 26.527 6.68094 26.527 13.9495Z" stroke="#E84937"/>
<defs>
<clipPath id="clip0">
<rect width="12.973" height="13.106" fill="white" transform="translate(7.56836 7.94238)"/>
</clipPath>
</defs>
</svg>
