<svg width="28" height="28" viewBox="0 0 28 28" fill="none" xmlns="http://www.w3.org/2000/svg">
<g clip-path="url(#clip0)">
<path d="M16.9736 7.94238H12.1087C9.87009 7.94238 8.05469 9.77641 8.05469 12.038V16.9528C8.05469 19.2144 9.87009 21.0484 12.1087 21.0484H16.9736C19.2123 21.0484 21.0277 19.2144 21.0277 16.9528V12.038C21.0277 9.77641 19.2123 7.94238 16.9736 7.94238ZM19.8114 16.9528C19.8114 18.5337 18.5385 19.8197 16.9736 19.8197H12.1087C10.5439 19.8197 9.2709 18.5337 9.2709 16.9528V12.038C9.2709 10.4571 10.5439 9.17107 12.1087 9.17107H16.9736C18.5385 9.17107 19.8114 10.4571 19.8114 12.038V16.9528Z" fill="#E84937"/>
<path d="M14.5412 11.2188C12.7501 11.2188 11.298 12.6858 11.298 14.4953C11.298 16.3047 12.7501 17.7718 14.5412 17.7718C16.3323 17.7718 17.7845 16.3047 17.7845 14.4953C17.7845 12.6858 16.3323 11.2188 14.5412 11.2188ZM14.5412 16.5431C13.4239 16.5431 12.5142 15.624 12.5142 14.4953C12.5142 13.3657 13.4239 12.4474 14.5412 12.4474C15.6585 12.4474 16.5682 13.3657 16.5682 14.4953C16.5682 15.624 15.6585 16.5431 14.5412 16.5431Z" fill="#E84937"/>
<path d="M18.0275 11.4098C18.2662 11.4098 18.4597 11.2143 18.4597 10.9732C18.4597 10.7321 18.2662 10.5366 18.0275 10.5366C17.7888 10.5366 17.5953 10.7321 17.5953 10.9732C17.5953 11.2143 17.7888 11.4098 18.0275 11.4098Z" fill="#E84937"/>
</g>
<path d="M27.0134 13.9495C27.0134 21.218 21.1822 27.1016 13.9998 27.1016C6.81747 27.1016 0.986328 21.218 0.986328 13.9495C0.986328 6.68094 6.81747 0.797363 13.9998 0.797363C21.1822 0.797363 27.0134 6.68094 27.0134 13.9495Z" stroke="#E84937"/>
<defs>
<clipPath id="clip0">
<rect width="12.973" height="13.106" fill="white" transform="translate(8.05469 7.94238)"/>
</clipPath>
</defs>
</svg>
