<svg width="30" height="31" viewBox="0 0 30 31" fill="none" xmlns="http://www.w3.org/2000/svg">
<g filter="url(#filter0_d)">
<path d="M25.3593 17.5148L20.9196 14.5236C20.3562 14.1471 19.601 14.271 19.1844 14.8083L17.8912 16.4882C17.725 16.7096 17.4229 16.7738 17.1824 16.6389L16.9364 16.5018C16.1209 16.0528 15.1063 15.4937 13.0619 13.4276C11.0175 11.3615 10.463 10.3357 10.0185 9.51331L9.88358 9.26478C9.74818 9.02193 9.81054 8.71541 10.0298 8.54616L11.6914 7.24005C12.2231 6.81921 12.3459 6.05645 11.9736 5.48709L9.01287 1.00185C8.63133 0.422057 7.86587 0.248007 7.27521 0.60671L5.41869 1.73336C4.83536 2.07982 4.40739 2.64092 4.22453 3.29908C3.556 5.75993 4.05893 10.007 10.2517 16.264C15.1779 21.2404 18.8453 22.5786 21.3659 22.5786C21.9461 22.5811 22.5239 22.5049 23.0839 22.3519C23.7356 22.1674 24.291 21.735 24.6338 21.1455L25.7501 19.2711C26.1057 18.6742 25.9335 17.9004 25.3593 17.5148ZM25.1202 18.8922L24.0065 20.7677C23.7604 21.1932 23.3609 21.506 22.8916 21.6407C20.6429 22.2644 16.7142 21.7478 10.7689 15.7415C4.82358 9.73522 4.31226 5.7666 4.92964 3.49446C5.06311 3.01983 5.37316 2.61569 5.79483 2.36669L7.65135 1.2415C7.90763 1.08572 8.23986 1.16123 8.40542 1.41283L10.0138 3.85226L11.3637 5.89768C11.5253 6.14464 11.4722 6.47565 11.2416 6.6584L9.57953 7.96451C9.07373 8.35524 8.92929 9.06221 9.24071 9.62331L9.37268 9.86556C9.83984 10.7311 10.4206 11.8079 12.5411 13.9498C14.6615 16.0916 15.727 16.6784 16.5834 17.1503L16.8236 17.2839C17.3789 17.5985 18.0788 17.4526 18.4655 16.9416L19.7584 15.2626C19.9393 15.0297 20.2668 14.9761 20.5114 15.1392L24.9507 18.1304C25.1999 18.2975 25.2747 18.6333 25.1202 18.8922Z" fill="#1B1736"/>
<path d="M16.428 4.11499C19.8583 4.11884 22.6381 6.92723 22.642 10.3927C22.642 10.5967 22.8056 10.762 23.0075 10.762C23.2094 10.762 23.373 10.5967 23.373 10.3927C23.3688 6.5195 20.2619 3.38071 16.428 3.37646C16.2261 3.37646 16.0625 3.54177 16.0625 3.74573C16.0625 3.94968 16.2261 4.11499 16.428 4.11499Z" fill="#1B1736"/>
<path d="M16.428 6.33032C18.6476 6.33296 20.4462 8.15006 20.4488 10.3924C20.4488 10.5963 20.6125 10.7616 20.8143 10.7616C21.0162 10.7616 21.1799 10.5963 21.1799 10.3924C21.1768 7.74233 19.0511 5.59483 16.428 5.5918C16.2261 5.5918 16.0625 5.75711 16.0625 5.96106C16.0625 6.16501 16.2261 6.33032 16.428 6.33032Z" fill="#1B1736"/>
<path d="M16.428 8.54614C17.4369 8.54735 18.2544 9.37329 18.2557 10.3925C18.2557 10.5965 18.4193 10.7618 18.6212 10.7618C18.823 10.7618 18.9867 10.5965 18.9867 10.3925C18.9851 8.9656 17.8405 7.80922 16.428 7.80762C16.2261 7.80762 16.0625 7.97293 16.0625 8.17688C16.0625 8.38083 16.2261 8.54614 16.428 8.54614Z" fill="#1B1736"/>
</g>
<defs>
<filter id="filter0_d" x="0" y="0.42041" width="29.9349" height="30.1583" filterUnits="userSpaceOnUse" color-interpolation-filters="sRGB">
<feFlood flood-opacity="0" result="BackgroundImageFix"/>
<feColorMatrix in="SourceAlpha" type="matrix" values="0 0 0 0 0 0 0 0 0 0 0 0 0 0 0 0 0 0 127 0"/>
<feOffset dy="4"/>
<feGaussianBlur stdDeviation="2"/>
<feColorMatrix type="matrix" values="0 0 0 0 0 0 0 0 0 0 0 0 0 0 0 0 0 0 0.25 0"/>
<feBlend mode="normal" in2="BackgroundImageFix" result="effect1_dropShadow"/>
<feBlend mode="normal" in="SourceGraphic" in2="effect1_dropShadow" result="shape"/>
</filter>
</defs>
</svg>
