<svg width="28" height="28" viewBox="0 0 28 28" fill="none" xmlns="http://www.w3.org/2000/svg">
<path d="M26.527 13.9495C26.527 21.218 20.6959 27.1016 13.5135 27.1016C6.33115 27.1016 0.5 21.218 0.5 13.9495C0.5 6.68094 6.33115 0.797363 13.5135 0.797363C20.6959 0.797363 26.527 6.68094 26.527 13.9495Z" stroke="#E84937"/>
<path d="M13.5016 7.36914H13.4984C9.91444 7.36914 7 10.3143 7 13.9358C7 15.3723 7.45825 16.7037 8.23744 17.7847L7.42738 20.2242L9.92581 19.4173C10.9536 20.1052 12.1797 20.5025 13.5016 20.5025C17.0856 20.5025 20 17.5565 20 13.9358C20 10.3151 17.0856 7.36914 13.5016 7.36914ZM17.2838 16.6421C17.127 17.0894 16.5046 17.4605 16.0082 17.5688C15.6686 17.6419 15.2249 17.7001 13.7316 17.0747C11.8214 16.2752 10.5912 14.3142 10.4954 14.187C10.4036 14.0598 9.7235 13.1486 9.7235 12.2063C9.7235 11.264 10.1972 10.8051 10.3881 10.6081C10.5449 10.4464 10.8041 10.3726 11.0528 10.3726C11.1332 10.3726 11.2055 10.3767 11.2705 10.38C11.4614 10.3882 11.5573 10.3997 11.6832 10.7042C11.8401 11.0859 12.2219 12.0282 12.2674 12.125C12.3137 12.2219 12.3601 12.3532 12.2951 12.4805C12.2341 12.6118 12.1805 12.6701 12.0846 12.7817C11.9887 12.8933 11.8977 12.9787 11.8019 13.0986C11.7141 13.2028 11.615 13.3144 11.7255 13.5073C11.836 13.6961 12.2179 14.3257 12.7801 14.8313C13.5057 15.4839 14.0939 15.6924 14.3044 15.781C14.4612 15.8467 14.6481 15.8311 14.7626 15.708C14.9081 15.5496 15.0876 15.2869 15.2704 15.0283C15.4004 14.8428 15.5646 14.8198 15.7368 14.8855C15.9123 14.9471 16.841 15.4108 17.0319 15.5069C17.2229 15.6037 17.3488 15.6497 17.3951 15.731C17.4406 15.8122 17.4406 16.1939 17.2838 16.6421Z" fill="#E84937"/>
</svg>
